# xmcd CD database file
#
# Track frame offsets:
#	182
#	13192
#	25760
#	34172
#	46920
#	58115
#	68722
#	79422
#	88635
#	101192
#	111890
#	123187
#	131185
#	141165
#	153765
#	163207
#	173372
#	186497
#	196427
#	209227
#
# Disc length: 2966 seconds
#
# Revision: 5
# Processed by: cddbd v1.5.2PL0 Copyright (c) Steve Scherf et al.
# Submitted via: CDex 1.70beta2
#
DISCID=230b9414
DTITLE=Jim Reeves - The Ultimate Collection CD2
DYEAR=1996
DGENRE=Country
TTITLE0=Distant Drums
TTITLE1=I Can't Stop Loving You
TTITLE2=From a Jack To a King
TTITLE3=Roses Are Red (My Love)
TTITLE4=Moonlight And Roses (Bring Mem'ries of You)
TTITLE5=You're the Only Good Thing (That's Ever Happened to Me)
TTITLE6=Am I That Easy to Forget
TTITLE7=You're Free to Go
TTITLE8=Not Until the Next Time
TTITLE9=Don't Let Me Cross Over
TTITLE10=Anna Marie
TTITLE11=Trying to Forget
TTITLE12=I Won't Come in While He's There
TTITLE13=This World is Not My Home
TTITLE14=Billy Nayou
TTITLE15=Is It Really Over?
TTITLE16=(There'll Be Bluebirds Over) The White Cliffs of Dover
TTITLE17=Blue Boy
TTITLE18=Golden Memories And Silver Tears
TTITLE19=Danny Boy
EXTD=YEAR: 1996
EXTT0=
EXTT1=
EXTT2=
EXTT3=
EXTT4=
EXTT5=
EXTT6=
EXTT7=
EXTT8=
EXTT9=
EXTT10=
EXTT11=
EXTT12=
EXTT13=
EXTT14=
EXTT15=
EXTT16=
EXTT17=
EXTT18=
EXTT19=
PLAYORDER=
